<?xml version="1.0" standalone="no"?>
<!DOCTYPE svg PUBLIC "-//W3C//DTD SVG 20010904//EN"
 "http://www.w3.org/TR/2001/REC-SVG-20010904/DTD/svg10.dtd">
<svg version="1.0" xmlns="http://www.w3.org/2000/svg"
 width="1753.000000pt" height="893.000000pt" viewBox="0 0 1753.000000 893.000000"
 preserveAspectRatio="xMidYMid meet">

<g transform="translate(0.000000,893.000000) scale(0.100000,-0.100000)"
fill="#000000" stroke="none">
<path d="M3065 8911 c-178 -47 -309 -124 -445 -260 -152 -154 -299 -388 -363
-583 -53 -159 -87 -382 -87 -569 l0 -89 -62 49 c-448 350 -968 426 -1494 219
-126 -50 -291 -140 -414 -227 -107 -75 -185 -144 -155 -137 22 6 418 76 427
76 3 0 9 -20 12 -45 l7 -45 220 0 219 0 0 -90 c0 -49 1 -90 3 -90 1 0 73 31
160 69 l157 69 18 -42 c34 -75 90 -110 226 -140 43 -10 149 -40 235 -66 169
-53 399 -144 341 -136 -366 54 -811 15 -1144 -101 -358 -124 -571 -309 -726
-628 -107 -221 -171 -469 -195 -760 l-7 -80 31 47 c48 70 160 171 248 222 43
25 83 46 90 46 9 0 13 -34 15 -122 l3 -123 94 185 95 185 8 -40 c19 -94 11
-95 104 12 47 54 89 99 93 101 4 1 22 -32 41 -73 18 -42 36 -73 40 -68 4 4 54
93 111 197 115 210 105 206 129 59 8 -46 16 -83 19 -83 4 0 50 88 104 195 53
107 101 195 107 195 6 0 10 -49 10 -127 l0 -127 168 165 c92 92 185 174 207
185 34 16 66 19 213 22 137 3 172 1 172 -10 0 -7 -46 -38 -102 -68 -148 -80
-258 -161 -378 -280 -170 -168 -320 -387 -455 -662 -98 -200 -110 -247 -110
-413 0 -100 7 -175 23 -265 23 -125 60 -267 72 -275 3 -2 44 84 90 191 45 107
86 194 90 194 4 0 28 -28 54 -61 l48 -62 22 39 c12 22 57 106 100 188 73 138
80 148 93 130 8 -10 49 -85 91 -167 42 -81 81 -146 87 -144 12 4 14 15 60 242
89 444 96 471 157 547 38 48 156 148 175 148 8 0 13 -13 13 -37 0 -75 15 -67
70 38 29 57 63 120 75 141 l22 39 22 -133 c39 -244 199 -1369 240 -1693 64
-508 105 -903 152 -1470 27 -318 37 -1068 19 -1410 -6 -126 -14 -359 -17 -516
l-6 -286 63 -6 c101 -11 266 -8 492 8 117 9 214 18 216 20 5 4 -53 455 -169
1330 -161 1214 -319 2314 -484 3384 -47 300 -84 546 -82 547 1 1 79 -157 172
-351 93 -195 172 -352 174 -349 3 3 22 48 42 101 l36 96 68 -129 c99 -186 83
-176 145 -99 l53 65 81 -194 c45 -107 84 -198 88 -202 13 -12 27 38 59 206 39
209 49 391 25 503 -52 254 -314 680 -567 922 -104 100 -185 160 -336 251 -65
39 -118 75 -118 80 0 5 67 10 149 12 226 4 217 8 427 -200 l174 -173 3 128 c1
70 6 127 10 127 5 0 53 -87 108 -194 54 -107 102 -192 105 -188 3 4 12 43 19
87 7 44 16 88 19 98 5 12 36 -36 106 -164 55 -100 105 -188 110 -196 8 -11 18
2 44 61 18 42 37 76 41 76 4 0 44 -45 90 -100 46 -55 86 -98 88 -95 3 2 10 30
17 62 l12 58 91 -182 c51 -101 97 -183 102 -183 6 0 10 47 10 120 0 66 4 120
8 120 5 0 50 -26 100 -57 94 -60 164 -120 221 -188 l33 -40 -7 90 c-33 432
-186 825 -410 1051 -120 121 -241 191 -426 248 -63 19 -162 53 -221 75 -304
117 -588 139 -975 76 -36 -6 -37 -5 -18 10 18 14 411 146 627 210 88 26 100
34 176 121 28 32 33 31 190 -37 64 -28 122 -53 129 -56 9 -3 13 20 15 89 l3
93 217 3 216 2 7 40 c4 22 12 40 19 40 7 0 106 -18 221 -40 114 -22 211 -38
214 -34 19 19 -259 204 -444 295 -458 228 -918 244 -1309 47 -70 -35 -280
-161 -421 -251 -55 -36 -101 -64 -102 -63 -3 3 152 382 212 521 49 111 61 152
70 240 8 70 22 87 133 172 39 31 72 58 72 61 0 3 -11 17 -24 31 -14 15 -27 37
-31 51 -6 27 -4 33 114 245 33 61 61 113 61 118 0 10 -16 8 -95 -12z"/>
<path d="M5992 8752 c-6 -26 -27 -128 -49 -227 l-38 -180 -3 138 -3 137 -27
-7 c-15 -3 -110 -27 -212 -53 -169 -42 -186 -48 -192 -71 -9 -28 -410 -3621
-405 -3626 10 -9 390 -114 400 -110 7 3 48 96 91 208 43 112 83 208 87 214 5
5 9 -62 9 -153 0 -159 0 -162 23 -167 171 -42 223 -53 226 -50 3 4 121 967
121 994 0 9 3 11 9 5 5 -5 210 -337 456 -739 245 -401 449 -733 453 -736 7 -7
325 234 330 249 1 4 -38 102 -88 217 -49 114 -88 210 -86 212 2 2 41 -55 87
-126 46 -72 87 -130 90 -131 9 0 164 233 163 246 -1 6 -236 296 -524 644
l-522 633 49 48 c26 26 262 250 523 499 261 248 475 454 475 458 0 4 -36 42
-81 85 l-81 77 -120 -95 c-67 -52 -124 -95 -127 -95 -4 0 50 68 119 152 69 83
122 155 118 159 -21 18 -434 171 -442 163 -4 -5 -158 -219 -342 -477 -184
-257 -335 -464 -337 -459 -1 4 47 411 108 904 60 494 110 908 110 922 0 24
-11 30 -307 162 l-52 23 -9 -47z"/>
<path d="M10956 8475 c-186 -35 -315 -103 -447 -234 -190 -190 -317 -454 -389
-811 -44 -220 -61 -402 -67 -745 -6 -313 4 -548 32 -830 15 -144 78 -613 99
-739 l12 -71 114 -41 c76 -27 117 -37 121 -30 3 6 19 71 34 144 16 73 32 129
35 125 4 -5 22 -118 40 -253 18 -135 36 -249 41 -254 5 -6 95 10 226 39 120
27 219 50 221 51 1 1 -20 118 -47 260 -93 484 -151 857 -136 872 3 4 148 28
321 53 174 26 318 50 321 53 3 3 -1 31 -10 63 -9 32 -21 77 -27 101 l-11 42
-119 0 c-66 0 -120 3 -120 8 1 4 32 21 70 39 l70 32 0 129 0 129 -72 -17 c-40
-9 -164 -38 -275 -65 -112 -27 -205 -46 -208 -43 -11 11 -26 459 -20 588 15
307 69 497 164 583 45 40 85 52 181 51 115 -1 197 -64 221 -169 23 -105 -24
-315 -121 -532 l-38 -87 116 -48 c64 -26 121 -48 127 -48 6 0 44 82 85 183
l75 182 3 -157 c1 -87 6 -158 10 -158 4 0 65 -7 136 -15 71 -9 133 -12 137 -8
15 16 99 296 123 410 38 185 49 299 43 461 -6 172 -27 267 -86 387 -90 181
-264 307 -498 361 -100 22 -387 28 -487 9z"/>
<path d="M16146 8325 c-298 -62 -628 -283 -893 -599 -332 -395 -539 -975 -536
-1501 2 -471 110 -758 393 -1046 102 -103 148 -134 186 -125 39 10 53 45 64
157 34 334 144 564 425 889 204 236 300 418 350 667 63 306 157 472 372 654
120 102 163 152 208 244 47 95 65 171 72 296 8 143 -10 203 -83 276 -74 74
-142 94 -339 99 -104 2 -171 -1 -219 -11z"/>
<path d="M16911 8103 c-7 -21 -16 -103 -21 -183 -18 -297 -88 -458 -287 -657
-104 -104 -155 -173 -202 -273 -29 -61 -36 -85 -89 -306 -70 -288 -197 -519
-426 -773 -126 -140 -202 -242 -265 -355 -95 -172 -160 -383 -145 -471 22
-134 108 -188 334 -210 133 -13 329 25 483 94 209 94 495 327 695 566 335 400
537 969 536 1510 0 261 -38 441 -134 642 -65 137 -95 179 -223 310 -109 111
-128 124 -208 137 -34 6 -36 5 -48 -31z"/>
<path d="M8151 7435 c-98 -22 -180 -66 -254 -135 -218 -204 -393 -651 -452
-1160 -20 -165 -19 -472 0 -609 45 -308 161 -530 317 -604 62 -29 186 -57 255
-57 125 1 289 63 412 155 112 86 274 295 352 458 39 80 39 81 34 37 -3 -25
-16 -171 -30 -325 -14 -154 -28 -301 -31 -327 l-6 -48 234 0 234 0 71 248 72
247 0 -157 1 -158 100 0 c95 0 100 1 105 23 3 12 81 533 175 1157 93 624 172
1146 175 1160 l6 26 -247 23 c-135 12 -247 21 -248 19 -2 -2 -39 -88 -84 -193
l-81 -190 -1 152 c0 150 0 153 -22 158 -137 31 -200 45 -206 45 -5 0 -19 -153
-32 -340 -13 -187 -27 -337 -30 -333 -4 5 -15 33 -24 63 -52 165 -202 417
-306 513 -144 134 -324 190 -489 152z m512 -789 c44 -19 71 -51 102 -120 40
-90 55 -169 62 -316 14 -339 -99 -570 -281 -570 -68 0 -102 24 -136 95 -39 81
-54 176 -47 305 13 238 89 488 177 581 41 43 68 49 123 25z"/>
<path d="M12925 7415 c-115 -20 -233 -61 -320 -110 -478 -273 -719 -901 -604
-1574 68 -399 298 -742 577 -862 103 -44 207 -61 382 -62 91 0 201 5 245 12
424 64 734 293 875 644 33 83 67 218 72 286 l3 43 -45 14 c-25 8 -75 22 -111
33 l-66 19 -109 -185 c-60 -101 -110 -180 -111 -176 -1 4 17 91 41 193 23 102
41 187 39 189 -4 5 -238 40 -269 41 -17 0 -24 -11 -38 -61 -29 -106 -83 -198
-160 -275 -63 -63 -80 -74 -140 -93 -78 -24 -143 -27 -189 -8 -50 22 -122 102
-161 180 -40 81 -85 228 -88 290 l-3 41 685 52 c377 29 695 53 708 53 22 1 22
3 22 134 0 351 -84 641 -247 855 -118 155 -296 267 -503 317 -92 23 -380 29
-485 10z m228 -709 c71 -30 131 -117 146 -216 l8 -50 -273 0 c-194 0 -274 3
-274 11 0 6 13 39 29 73 64 132 151 196 269 196 34 0 77 -6 95 -14z"/>
<path d="M10681 4158 c-18 -84 -39 -178 -46 -208 l-13 -55 -1 123 c-1 67 -4
122 -8 122 -19 -1 -404 -98 -409 -103 -9 -9 -399 -3506 -391 -3513 10 -11 380
-114 386 -108 3 3 43 99 88 212 l82 207 0 -157 1 -156 123 -30 c67 -16 123
-27 124 -23 1 3 28 220 59 481 31 261 58 477 60 479 2 2 5 2 7 0 3 -4 804
-1313 854 -1397 l20 -33 159 122 c87 67 160 123 161 124 2 1 -38 95 -87 210
-49 115 -88 210 -87 212 2 1 42 -56 89 -129 l86 -131 81 122 82 122 -348 421
c-191 232 -419 508 -505 613 -87 104 -158 193 -158 196 0 3 226 221 503 484
276 264 502 481 502 484 0 3 -35 39 -78 80 l-77 74 -40 -29 c-21 -16 -75 -57
-120 -92 -44 -34 -80 -61 -80 -58 0 3 54 71 120 151 100 121 117 147 103 152
-10 4 -106 42 -213 84 -146 57 -198 74 -207 65 -6 -6 -156 -213 -332 -460
-216 -302 -321 -441 -321 -425 0 13 47 410 106 882 58 473 104 866 102 874 -2
11 -317 163 -339 163 -3 0 -21 -69 -38 -152z"/>
<path d="M5675 4165 c-2 -11 -16 -128 -30 -260 -37 -352 -35 -348 -59 -150
l-21 170 -145 37 c-79 20 -146 36 -148 34 -2 -2 -36 -686 -77 -1521 -40 -834
-75 -1518 -77 -1519 -1 -2 -37 -7 -78 -12 l-75 -9 -21 -160 c-12 -88 -25 -190
-29 -226 l-7 -66 78 -6 c42 -4 139 -7 216 -7 76 0 138 -4 138 -8 0 -4 -66 -20
-147 -36 -82 -15 -155 -30 -164 -32 -14 -4 -14 -15 5 -112 21 -103 23 -107 46
-104 14 2 527 96 1140 210 l1115 207 28 169 c15 93 26 171 23 173 -2 3 -69 15
-148 27 -78 12 -138 25 -133 28 6 3 54 13 107 23 91 16 97 19 93 39 -3 11 -13
62 -23 111 l-18 90 -35 -3 c-19 -1 -321 -43 -673 -93 -351 -49 -640 -88 -641
-87 -1 2 28 695 64 1541 36 845 64 1537 61 1538 -3 0 -85 8 -183 17 -177 17
-178 17 -182 -3z"/>
<path d="M15492 4111 c-155 -39 -183 -49 -187 -66 -3 -11 -59 -243 -124 -515
-66 -272 -132 -553 -148 -624 l-28 -129 -198 -52 c-109 -29 -200 -55 -203 -57
-4 -4 60 -195 91 -270 5 -12 25 -18 77 -23 128 -13 131 -17 28 -50 -50 -16
-93 -32 -95 -35 -3 -5 13 -86 40 -207 l5 -22 66 19 66 18 -6 -45 c-30 -223
-40 -371 -40 -643 -1 -239 3 -314 17 -395 51 -288 148 -493 302 -634 161 -146
375 -210 665 -198 154 6 230 23 346 77 273 126 452 351 582 730 94 276 152
665 152 1029 0 75 -2 83 -18 79 -9 -3 -113 -24 -230 -48 l-212 -44 0 -136 -1
-135 -52 97 c-29 54 -56 100 -59 103 -3 3 -40 -15 -83 -39 l-78 -45 -4 -138
c-8 -317 -63 -563 -150 -677 -104 -136 -228 -164 -319 -73 -46 47 -75 124 -95
251 -16 102 -5 466 20 651 27 197 70 448 79 456 4 4 297 86 652 184 355 97
648 180 652 184 4 3 -2 41 -14 84 -18 65 -25 77 -42 77 -12 0 -97 -14 -190
-30 -93 -16 -171 -29 -172 -27 -2 2 82 54 186 116 105 63 190 117 190 122 0 4
-31 59 -68 121 -54 88 -73 112 -88 110 -10 -2 -226 -59 -479 -127 -252 -68
-461 -122 -463 -120 -10 10 200 648 270 818 22 55 36 102 32 106 -10 9 -307
91 -327 91 -6 0 -57 -70 -112 -154 -55 -85 -103 -155 -106 -155 -3 -1 10 90
28 202 18 111 32 209 31 218 -3 13 -31 8 -186 -30z"/>
<path d="M13190 3050 c-182 -22 -382 -103 -535 -217 -247 -185 -424 -476 -481
-793 -23 -128 -23 -372 0 -500 34 -190 123 -397 236 -549 120 -161 318 -317
494 -387 112 -45 183 -63 309 -76 191 -20 385 13 556 93 353 165 603 491 686
894 23 111 30 318 16 442 -31 267 -145 552 -307 769 -59 79 -164 195 -211 232
l-39 30 -66 -59 -67 -60 45 -63 c24 -35 44 -67 44 -70 0 -3 -36 12 -80 34
l-79 40 36 60 c21 36 32 65 27 70 -23 21 -149 83 -196 95 -66 18 -291 26 -388
15z m256 -401 c50 -13 57 -19 47 -46 -7 -18 -12 -16 -62 19 -58 41 -56 45 15
27z m120 -285 c257 -85 372 -490 224 -784 -102 -202 -306 -322 -495 -290 -176
29 -335 172 -402 361 -32 89 -42 240 -23 328 30 141 134 286 242 340 100 50
177 39 248 -34 19 -19 37 -35 41 -35 3 0 31 29 60 65 30 36 54 65 55 65 0 0
23 -7 50 -16z"/>
<path d="M8050 2994 c-92 -24 -160 -64 -230 -133 -214 -210 -379 -654 -430
-1155 -18 -173 -8 -502 19 -628 55 -254 148 -416 278 -485 78 -42 206 -67 297
-60 191 17 366 119 509 299 97 122 130 172 183 276 40 79 43 83 39 47 -3 -22
-16 -166 -30 -320 -14 -154 -27 -297 -30 -318 l-5 -37 227 2 226 3 66 235 66
235 3 -153 3 -153 97 3 97 3 171 1135 c116 771 167 1137 160 1141 -6 4 -99 14
-206 23 -107 9 -209 19 -225 22 l-30 5 -75 -176 c-41 -97 -78 -179 -82 -182
-5 -2 -8 59 -8 136 0 138 0 141 -22 146 -150 34 -193 43 -197 39 -2 -2 -15
-144 -27 -316 -13 -171 -25 -316 -27 -321 -2 -6 -16 25 -31 69 -59 166 -176
366 -269 459 -150 150 -336 207 -517 159z m507 -749 c50 -21 71 -41 100 -98
40 -79 64 -191 70 -327 15 -337 -109 -568 -294 -547 -39 4 -54 12 -79 41 -54
62 -69 129 -69 306 0 126 4 175 23 260 42 189 112 333 177 365 37 18 29 18 72
0z"/>
</g>
</svg>
