<?xml version="1.0" standalone="no"?>
<!DOCTYPE svg PUBLIC "-//W3C//DTD SVG 20010904//EN"
 "http://www.w3.org/TR/2001/REC-SVG-20010904/DTD/svg10.dtd">
<svg version="1.0" xmlns="http://www.w3.org/2000/svg"
 width="1753.000000pt" height="893.000000pt" viewBox="0 0 1753.000000 893.000000"
 preserveAspectRatio="xMidYMid meet">

<g transform="translate(0.000000,893.000000) scale(0.100000,-0.100000)"
fill="#000000" stroke="none">
<path d="M3123 8822 c-6 -4 -37 -50 -69 -102 -71 -119 -80 -165 -38 -207 l28
-28 6 31 c4 16 39 88 78 160 40 71 72 134 72 141 0 14 -57 18 -77 5z"/>
<path d="M6360 8573 c0 -5 -49 -408 -110 -898 -60 -489 -108 -891 -106 -892 1
-2 20 24 41 58 l40 60 97 792 c54 436 98 806 98 824 0 22 -7 37 -22 47 -24 17
-38 20 -38 9z"/>
<path d="M5905 8487 c-4 -18 -5 -53 -3 -77 l3 -45 13 60 c7 33 16 68 18 78 4
11 0 17 -10 17 -9 0 -17 -13 -21 -33z"/>
<path d="M2965 8414 c-115 -91 -125 -102 -125 -148 0 -66 -25 -154 -78 -276
-88 -203 -204 -491 -200 -496 3 -2 29 13 59 34 50 35 57 45 92 132 21 52 67
163 103 246 42 100 67 175 75 225 18 115 20 120 107 193 84 70 96 92 68 129
-7 9 -17 17 -22 17 -5 -1 -40 -26 -79 -56z"/>
<path d="M16775 8145 c5 -11 10 -68 13 -126 5 -131 -14 -234 -64 -339 -49
-104 -99 -165 -210 -256 -206 -169 -320 -364 -370 -632 -47 -251 -157 -464
-360 -697 -108 -123 -192 -235 -246 -329 -93 -158 -158 -363 -176 -559 -11
-111 -29 -149 -78 -157 l-29 -5 30 -21 c49 -35 70 -37 99 -12 24 21 28 35 42
148 40 329 146 553 399 845 230 265 322 440 380 719 56 275 156 450 353 620
131 113 175 162 217 245 54 108 78 223 73 351 -4 108 -15 142 -61 200 -15 19
-18 20 -12 5z"/>
<path d="M11955 8089 c51 -113 67 -202 72 -384 7 -248 -21 -422 -114 -718
l-47 -149 -81 7 c-44 4 -90 9 -102 10 -27 3 -28 -3 -8 -31 11 -17 29 -23 87
-28 40 -4 89 -10 109 -13 50 -7 62 9 104 139 120 372 149 699 85 954 -20 81
-74 199 -110 244 -17 21 -17 17 5 -31z"/>
<path d="M17368 7750 c60 -106 131 -339 151 -495 8 -70 8 -70 10 47 1 103 -2
126 -25 190 -30 84 -104 231 -135 268 l-21 25 20 -35z"/>
<path d="M10974 7681 c-81 -37 -134 -134 -176 -323 -22 -97 -23 -124 -23 -485
0 -210 3 -384 6 -388 4 -3 17 -3 30 0 l24 6 -4 285 c-2 173 1 323 8 383 32
273 112 438 228 470 49 14 164 14 199 0 l28 -10 -19 22 c-11 12 -38 30 -60 40
-55 26 -185 26 -241 0z"/>
<path d="M4380 7508 c0 -13 -3 -33 -6 -45 -6 -23 -7 -23 -225 -23 l-219 0 0
-91 c0 -107 16 -104 -150 -30 -142 63 -168 64 -201 14 -31 -48 -76 -78 -147
-98 -130 -36 -642 -206 -647 -215 -4 -6 5 -8 22 -5 100 18 224 35 256 35 20 0
86 15 145 34 59 19 167 53 240 76 130 40 135 43 187 97 49 52 56 56 89 50 19
-3 78 -24 131 -46 130 -56 132 -56 137 23 6 99 0 96 217 96 199 0 210 2 234
50 17 35 53 36 204 6 175 -34 183 -35 189 -24 15 23 -33 39 -231 77 -115 23
-213 41 -217 41 -5 0 -8 -10 -8 -22z"/>
<path d="M7234 7502 c-16 -11 -197 -233 -193 -236 2 -2 54 36 116 85 62 49
117 88 124 87 6 -2 16 5 22 15 10 15 8 22 -12 38 -25 20 -39 23 -57 11z"/>
<path d="M350 7367 c-107 -22 -170 -53 -170 -83 0 -19 20 -17 170 9 l125 23 3
37 c4 43 12 42 -128 14z"/>
<path d="M577 7292 c-16 -7 -16 -9 -2 -30 16 -21 22 -22 186 -22 l169 0 0 30
0 30 -167 -1 c-93 0 -176 -4 -186 -7z"/>
<path d="M9910 7288 c-1 -2 -78 -518 -173 -1148 l-173 -1145 -62 -3 c-66 -3
-77 -15 -46 -46 11 -11 35 -16 79 -16 72 0 89 11 99 62 16 91 336 2233 336
2254 0 13 -9 28 -19 34 -18 9 -40 13 -41 8z"/>
<path d="M6920 6779 c-278 -264 -511 -486 -518 -493 -10 -10 -5 -21 25 -56 35
-40 38 -42 43 -21 3 12 228 233 500 492 272 258 499 481 504 494 8 19 5 29 -9
45 -10 11 -23 20 -29 20 -6 0 -238 -217 -516 -481z"/>
<path d="M9260 7148 c0 -61 2 -109 4 -107 2 2 16 33 30 68 32 78 34 126 7 141
-38 20 -41 13 -41 -102z"/>
<path d="M1160 7216 c-135 -59 -150 -68 -150 -86 0 -31 11 -50 30 -50 18 0
219 85 232 98 8 8 -18 72 -29 72 -4 0 -42 -15 -83 -34z"/>
<path d="M11557 7138 c-7 -18 -40 -99 -73 -180 -45 -114 -62 -146 -74 -142
-125 49 -141 54 -132 38 11 -19 155 -83 188 -84 27 0 34 9 72 102 26 63 33 96
38 187 4 61 4 111 1 111 -4 0 -13 -15 -20 -32z"/>
<path d="M1402 7082 c20 -23 83 -48 198 -77 58 -14 168 -46 245 -70 77 -24
158 -46 180 -49 l40 -6 -55 26 c-79 38 -386 137 -513 167 -88 20 -105 22 -95
9z"/>
<path d="M8852 6994 c28 -53 65 -136 83 -186 28 -80 33 -87 38 -62 4 21 -4 49
-29 103 -33 70 -131 241 -139 241 -2 0 19 -43 47 -96z"/>
<path d="M14019 6925 c94 -194 130 -359 138 -627 l6 -196 -44 -6 c-24 -3 -323
-26 -664 -51 -341 -25 -641 -48 -668 -51 l-48 -6 7 -36 c23 -127 89 -302 133
-352 l22 -25 -17 40 c-30 73 -64 189 -70 240 -5 40 -3 54 10 64 12 10 195 27
684 64 367 28 678 54 691 59 l24 9 -6 182 c-8 268 -47 432 -148 627 -62 121
-101 171 -50 65z"/>
<path d="M17522 6862 c-11 -166 -82 -483 -146 -657 -146 -393 -401 -747 -726
-1007 -243 -194 -441 -290 -655 -319 -102 -13 -252 -6 -333 15 -47 13 -52 13
-41 0 34 -42 136 -72 270 -81 323 -21 649 137 1002 484 297 292 503 648 608
1049 29 110 29 116 26 331 -1 120 -3 203 -5 185z"/>
<path d="M12967 6704 c-32 -10 -64 -31 -93 -60 -49 -49 -120 -182 -105 -197 5
-5 26 -6 45 -3 27 5 40 15 52 39 66 129 207 202 328 169 l38 -11 -18 21 c-49
54 -151 71 -247 42z"/>
<path d="M8569 6645 c-80 -43 -162 -258 -195 -510 -26 -196 0 -375 66 -448
l29 -32 -15 44 c-8 25 -20 82 -25 128 -24 191 41 518 132 669 40 66 78 96 124
97 28 1 32 4 25 18 -11 19 -70 49 -97 49 -10 -1 -30 -7 -44 -15z"/>
<path d="M11340 6426 l0 -83 -67 -31 -68 -30 91 -1 c75 -1 93 2 98 15 3 9 6
55 6 103 0 90 -8 111 -42 111 -16 0 -18 -10 -18 -84z"/>
<path d="M2770 6488 c0 -7 14 -22 31 -32 27 -16 52 -18 173 -17 93 1 159 -3
194 -12 52 -14 53 -14 35 6 -10 11 -38 29 -63 41 -38 17 -70 21 -207 24 -134
3 -163 2 -163 -10z"/>
<path d="M3528 6374 c-9 -9 -8 -186 1 -229 4 -20 13 -31 27 -33 20 -3 22 2 26
75 4 68 1 86 -21 136 -14 33 -29 55 -33 51z"/>
<path d="M4659 6300 c105 -226 165 -458 187 -718 5 -68 10 -85 27 -97 34 -23
38 -1 22 120 -32 240 -88 435 -180 620 -68 136 -111 195 -56 75z"/>
<path d="M1747 6346 c-62 -22 -108 -60 -220 -180 -77 -82 -107 -121 -107 -139
0 -33 10 -57 23 -57 6 0 74 62 151 138 171 168 198 183 340 192 99 5 155 22
164 48 6 18 -299 16 -351 -2z"/>
<path d="M1247 6086 c-80 -157 -80 -157 -60 -228 10 -38 34 -14 87 90 51 101
56 115 62 200 4 53 3 92 -2 92 -5 0 -44 -69 -87 -154z"/>
<path d="M3771 6139 c-15 -89 -14 -110 9 -139 23 -31 33 -22 49 43 11 44 9 51
-17 104 l-29 57 -12 -65z"/>
<path d="M11470 6173 c0 -10 7 -39 15 -65 14 -47 13 -48 -8 -53 -12 -2 -158
-25 -325 -49 -167 -24 -305 -46 -308 -48 -12 -12 59 -456 141 -878 25 -129 45
-240 45 -246 0 -6 -84 -30 -187 -53 -103 -23 -189 -44 -192 -46 -8 -9 10 -53
24 -59 18 -7 375 72 394 87 18 15 14 46 -53 396 -62 327 -106 607 -106 675 0
36 5 48 23 60 12 7 150 32 306 55 157 23 288 44 293 47 18 12 -7 148 -34 182
-15 17 -28 15 -28 -5z"/>
<path d="M1018 5955 c-136 -244 -135 -241 -118 -272 30 -54 43 -43 121 99 76
138 82 163 60 243 -7 28 -9 26 -63 -70z"/>
<path d="M4050 5903 c-21 -51 -22 -59 -9 -82 22 -39 47 -32 76 21 l25 46 -28
36 c-16 20 -32 36 -35 36 -3 0 -16 -25 -29 -57z"/>
<path d="M4276 5826 c-8 -50 8 -86 37 -86 29 0 30 25 3 79 -15 28 -28 51 -30
51 -2 0 -7 -20 -10 -44z"/>
<path d="M703 5733 l-72 -85 28 -24 c16 -13 33 -24 38 -24 5 0 35 29 67 65
l57 65 -20 45 c-11 25 -21 45 -23 45 -2 -1 -35 -39 -75 -87z"/>
<path d="M13751 5668 c-18 -79 -35 -152 -38 -163 -6 -24 25 23 82 126 51 92
62 140 40 163 -9 9 -24 16 -34 16 -14 0 -23 -26 -50 -142z"/>
<path d="M2338 5700 c-66 -125 -75 -150 -55 -150 8 0 20 -7 27 -15 7 -8 16
-15 21 -15 4 0 25 30 45 67 39 69 43 100 26 183 l-8 35 -56 -105z"/>
<path d="M6001 5608 c-13 -106 -40 -330 -60 -498 -42 -346 -26 -314 -138 -290
-34 8 -65 11 -69 7 -16 -16 24 -37 112 -58 83 -20 96 -21 109 -8 11 10 30 139
69 467 30 248 58 456 61 462 6 10 -45 110 -56 110 -3 0 -16 -87 -28 -192z"/>
<path d="M4500 5659 c0 -95 9 -135 34 -151 16 -10 24 19 25 87 2 74 10 89 46
83 22 -5 25 -3 13 7 -7 7 -37 27 -65 44 l-53 30 0 -100z"/>
<path d="M512 5623 c-46 -95 -52 -116 -52 -170 0 -94 19 -83 88 52 32 63 55
115 51 115 -3 0 -10 25 -14 55 -3 30 -10 55 -14 55 -4 0 -31 -48 -59 -107z"/>
<path d="M14155 5717 c-2 -6 -15 -58 -28 -114 -85 -348 -331 -611 -677 -727
-165 -55 -267 -70 -480 -70 -196 0 -287 14 -405 63 -68 29 -32 1 59 -46 95
-48 200 -73 341 -80 523 -26 949 187 1142 572 54 107 116 328 106 376 -5 22
-52 44 -58 26z"/>
<path d="M3621 5638 c49 -84 117 -232 144 -314 55 -168 55 -291 -1 -584 -31
-164 -32 -182 -9 -216 16 -25 19 -26 30 -10 15 20 60 249 76 388 20 170 -15
334 -109 519 -51 100 -150 269 -158 269 -2 0 10 -24 27 -52z"/>
<path d="M2189 5612 c-114 -76 -189 -170 -212 -265 -58 -233 -127 -573 -127
-622 0 -31 35 -73 49 -60 6 6 22 71 36 145 14 74 35 173 46 220 11 47 28 126
39 176 24 121 58 185 141 266 63 60 69 70 69 107 0 48 -8 55 -41 33z"/>
<path d="M304 5586 c-70 -37 -149 -93 -180 -128 -25 -27 -42 -122 -24 -133 6
-4 42 23 84 63 40 38 98 84 129 103 57 33 57 34 57 81 0 27 -1 48 -2 48 -2 0
-31 -15 -64 -34z"/>
<path d="M2851 5549 c-1 -8 21 -157 48 -330 122 -773 311 -2071 441 -3029 72
-527 226 -1707 236 -1802 l7 -66 -54 -6 c-136 -15 -348 -26 -482 -26 -141 0
-147 -1 -147 -20 0 -13 10 -24 26 -30 33 -13 308 -13 493 0 186 14 208 17 215
36 16 43 -357 2787 -574 4214 -147 967 -140 929 -176 1005 -18 39 -33 63 -33
54z"/>
<path d="M8767 5452 c-89 -181 -278 -402 -414 -481 -165 -98 -328 -123 -502
-78 -99 25 -101 18 -7 -30 99 -50 259 -67 371 -38 191 50 334 153 477 346 88
118 97 138 109 232 16 130 10 139 -34 49z"/>
<path d="M9291 5072 c-35 -125 -68 -235 -73 -244 -8 -16 -28 -18 -193 -18
-177 0 -185 -1 -185 -20 0 -34 32 -40 223 -40 161 0 187 2 205 18 14 11 33 60
57 143 34 120 35 133 33 257 l-3 131 -64 -227z"/>
<path d="M10466 5107 c-16 -73 -31 -135 -33 -139 -2 -4 -36 4 -75 18 -74 25
-89 25 -69 0 13 -15 153 -66 183 -66 21 0 27 10 43 70 10 36 10 71 3 141 -6
52 -13 97 -17 101 -4 4 -19 -52 -35 -125z"/>
<path d="M5556 4959 c-43 -112 -82 -207 -85 -211 -3 -4 -75 14 -159 38 -85 25
-157 43 -160 39 -17 -17 50 -47 197 -88 110 -31 169 -43 180 -38 9 5 38 65 64
133 47 122 48 124 45 227 l-3 103 -79 -203z"/>
<path d="M3246 5022 c-35 -91 -35 -98 -14 -132 17 -28 21 -31 33 -19 8 8 23
35 33 60 19 44 19 46 1 84 -29 58 -33 59 -53 7z"/>
<path d="M1548 4858 c-102 -196 -100 -190 -81 -217 30 -44 51 -24 128 122 40
76 77 143 83 149 8 8 4 25 -14 59 -13 27 -26 49 -27 49 -2 0 -42 -73 -89 -162z"/>
<path d="M7126 4928 c87 -201 144 -338 144 -347 0 -5 -68 -62 -150 -126 -95
-73 -148 -120 -144 -128 14 -25 38 -47 49 -47 13 0 216 151 268 198 15 14 27
34 27 43 0 9 -22 68 -48 131 -27 62 -55 131 -62 153 -11 35 -107 205 -116 205
-2 0 13 -37 32 -82z"/>
<path d="M7371 4887 c-39 -58 -71 -112 -71 -120 0 -21 39 -57 54 -51 18 7 136
185 136 204 0 8 -11 28 -24 44 l-23 30 -72 -107z"/>
<path d="M3491 4864 c-30 -39 -33 -48 -23 -70 18 -38 40 -41 73 -8 l29 30 -16
47 c-9 26 -19 47 -22 47 -4 0 -22 -21 -41 -46z"/>
<path d="M1256 4608 c-65 -154 -68 -163 -57 -200 20 -67 39 -47 108 111 35 79
68 150 74 157 9 11 7 20 -4 36 -26 36 -44 58 -49 58 -2 0 -35 -73 -72 -162z"/>
<path d="M11056 4063 c-16 -98 -206 -1676 -203 -1680 3 -2 21 21 41 52 l37 55
96 785 c94 762 96 785 78 805 -27 30 -43 24 -49 -17z"/>
<path d="M6046 4048 c-5 -24 -126 -2846 -126 -2931 0 -47 0 -47 28 -41 15 4
28 8 29 9 9 6 129 2953 121 2968 -13 25 -47 22 -52 -5z"/>
<path d="M15671 4038 c-11 -31 -53 -299 -47 -305 2 -2 23 27 45 65 47 77 81
223 60 249 -18 20 -49 15 -58 -9z"/>
<path d="M10633 4043 c-9 -3 -13 -26 -12 -71 l1 -67 14 60 c16 66 15 84 -3 78z"/>
<path d="M16111 3775 c-50 -129 -145 -412 -201 -600 -24 -77 -45 -145 -47
-152 -4 -10 5 -9 39 0 49 15 32 -24 151 342 41 127 96 282 121 346 25 64 46
123 46 131 0 13 -38 38 -59 38 -5 0 -27 -47 -50 -105z"/>
<path d="M5581 3834 c0 -16 6 -74 13 -129 12 -93 13 -97 19 -55 4 25 8 76 9
114 3 61 1 70 -19 83 -22 15 -23 14 -22 -13z"/>
<path d="M16893 3163 c2 -5 21 -36 41 -71 21 -35 37 -65 35 -67 -2 -2 -88 -53
-191 -114 -104 -62 -188 -113 -188 -115 0 -2 53 7 118 19 106 21 127 28 207
77 50 30 91 62 93 71 3 16 -102 207 -114 207 -3 0 -3 -3 -1 -7z"/>
<path d="M11813 2963 c-110 -134 -118 -147 -62 -103 150 120 181 142 194 136
10 -3 17 3 21 21 8 28 -15 53 -47 53 -10 0 -56 -46 -106 -107z"/>
<path d="M13746 2863 c-15 -21 -26 -41 -26 -45 0 -13 61 -40 76 -34 18 7 18
36 -2 64 -8 12 -13 26 -9 31 3 5 1 12 -4 16 -6 3 -21 -11 -35 -32z"/>
<path d="M9766 2833 c-8 -39 -326 -2155 -326 -2170 0 -9 -19 -13 -60 -13 -62
0 -68 -5 -50 -41 9 -16 22 -19 79 -19 49 0 72 4 81 15 12 14 339 2142 340
2207 0 17 -7 31 -19 38 -30 16 -39 12 -45 -17z"/>
<path d="M11595 2365 c-275 -261 -500 -479 -500 -484 0 -5 12 -23 28 -40 l27
-31 63 64 c34 35 206 200 382 367 425 401 545 520 545 540 0 8 -10 25 -23 37
l-23 22 -499 -475z"/>
<path d="M9150 2735 c0 -52 2 -95 4 -95 11 0 56 139 50 154 -6 15 -34 36 -48
36 -3 0 -6 -43 -6 -95z"/>
<path d="M17005 2722 l6 -38 -613 -169 c-337 -93 -634 -175 -659 -182 l-46
-13 -31 -193 c-57 -344 -66 -436 -66 -682 -1 -187 3 -243 17 -298 21 -86 53
-161 77 -182 18 -16 18 -15 0 42 -61 198 -49 571 35 1067 13 80 29 155 35 165
13 25 7 23 690 212 322 88 591 166 598 172 26 21 -8 137 -39 137 -7 0 -8 -14
-4 -38z"/>
<path d="M13410 2639 c14 -11 37 -26 51 -34 25 -13 27 -13 32 5 4 17 -3 22
-46 35 -65 19 -67 19 -37 -6z"/>
<path d="M8776 2527 c25 -53 56 -128 69 -165 l24 -67 0 44 c1 34 -10 65 -49
140 -71 134 -99 166 -44 48z"/>
<path d="M14283 2550 c89 -165 157 -363 183 -535 20 -126 14 -404 -11 -515
-91 -413 -357 -743 -721 -898 -274 -116 -622 -106 -896 26 -96 46 -92 37 10
-21 157 -90 307 -135 482 -144 497 -25 932 273 1130 777 12 30 33 102 48 160
24 96 27 122 27 310 0 220 -11 304 -60 453 -32 100 -97 242 -157 347 -59 102
-84 131 -35 40z"/>
<path d="M13459 2308 l-51 -62 26 -23 c15 -13 32 -23 37 -23 5 0 30 22 56 50
55 60 68 65 124 46 l44 -15 -34 29 c-32 27 -107 60 -137 60 -7 0 -36 -28 -65
-62z"/>
<path d="M14770 2350 c12 -23 30 -24 80 -6 l35 13 -40 6 c-22 4 -50 7 -63 7
-20 0 -21 -3 -12 -20z"/>
<path d="M13148 2335 c-120 -44 -232 -185 -273 -342 -31 -118 -10 -294 48
-410 25 -48 79 -121 59 -78 -55 115 -76 291 -48 409 34 144 143 294 251 346
34 17 68 24 107 25 55 0 56 1 40 19 -39 44 -115 56 -184 31z"/>
<path d="M8457 2221 c-119 -105 -211 -536 -162 -764 14 -69 49 -142 70 -151 9
-3 9 8 -2 42 -24 77 -28 232 -9 360 40 272 131 463 227 478 48 8 49 18 7 44
-48 29 -91 26 -131 -9z"/>
<path d="M14831 2081 c-18 -11 -7 -56 15 -65 21 -8 20 -9 28 37 6 31 4 37 -11
37 -10 0 -24 -4 -32 -9z"/>
<path d="M16913 2003 c-9 -3 -13 -27 -13 -71 0 -107 -19 -336 -40 -482 -48
-330 -155 -640 -292 -846 -71 -107 -205 -237 -305 -298 -156 -92 -289 -126
-498 -126 -154 0 -271 18 -387 60 -96 34 -81 16 29 -37 120 -58 197 -74 383
-80 124 -4 185 -2 245 10 294 55 540 258 684 561 126 266 203 583 231 951 15
211 13 330 -6 349 -8 9 -16 16 -17 15 -1 0 -8 -3 -14 -6z"/>
<path d="M16412 1795 c12 -25 24 -42 26 -36 4 12 -24 67 -38 76 -6 4 0 -14 12
-40z"/>
<path d="M10677 948 c-31 -265 -58 -483 -60 -484 -1 -2 -39 5 -84 15 -80 18
-82 18 -73 0 14 -25 21 -28 110 -50 87 -20 108 -18 115 15 2 11 27 212 55 445
28 233 52 426 55 430 3 6 -51 111 -58 111 -1 0 -28 -217 -60 -482z"/>
<path d="M7293 1125 c4 -25 9 -56 13 -69 5 -22 2 -25 -43 -34 -26 -6 -69 -13
-95 -17 -27 -4 -48 -11 -48 -15 0 -7 151 -30 197 -30 40 0 47 23 33 103 -12
68 -31 107 -53 107 -6 0 -7 -18 -4 -45z"/>
<path d="M8668 1090 c-44 -89 -147 -236 -225 -321 -136 -147 -327 -239 -496
-239 -68 0 -195 23 -232 43 -18 9 -19 8 -6 -6 7 -9 36 -28 65 -41 261 -127
576 -29 788 246 118 152 126 166 138 260 18 134 11 146 -32 58z"/>
<path d="M9170 715 l-65 -230 -177 -5 c-97 -3 -179 -8 -183 -12 -4 -3 -4 -16
0 -27 6 -20 13 -21 204 -21 176 0 200 2 213 18 8 9 29 69 47 132 30 107 32
124 29 245 l-3 129 -65 -229z"/>
<path d="M7361 733 c-12 -75 -22 -138 -24 -139 -1 -1 -491 -92 -1090 -203
-598 -111 -1094 -204 -1103 -208 -19 -7 -15 -42 7 -56 11 -7 324 47 1105 192
599 111 1101 206 1116 212 32 13 32 13 53 154 9 61 19 118 21 127 6 19 -28 58
-50 58 -10 0 -19 -38 -35 -137z"/>
<path d="M10286 619 c-44 -112 -81 -206 -83 -208 -2 -3 -71 15 -154 38 -83 23
-153 40 -156 38 -16 -17 51 -47 190 -87 119 -33 163 -41 175 -34 9 6 39 63 65
128 l48 117 -3 106 -3 106 -79 -204z"/>
<path d="M11783 618 c8 -18 47 -109 87 -202 l72 -170 -23 -17 c-98 -71 -263
-206 -264 -214 0 -5 25 -11 56 -13 l55 -3 107 82 c58 44 109 89 112 98 3 10
-20 76 -50 148 -30 72 -55 136 -55 143 0 13 -98 180 -106 180 -2 0 2 -15 9
-32z"/>
<path d="M12078 609 c-14 -19 -47 -66 -73 -106 -46 -70 -46 -72 -30 -97 29
-44 49 -33 114 65 34 50 61 97 61 104 0 8 -10 26 -23 41 l-24 27 -25 -34z"/>
<path d="M5000 450 c0 -22 28 -40 61 -40 13 0 79 10 148 22 119 21 123 23 81
29 -25 4 -100 8 -167 8 -116 1 -123 0 -123 -19z"/>
</g>
</svg>
